<?xml version="1.0" encoding="UTF-8"?>
<!DOCTYPE svg PUBLIC "-//W3C//DTD SVG 1.1//EN" "http://www.w3.org/Graphics/SVG/1.1/DTD/svg11.dtd">
<svg xmlns="http://www.w3.org/2000/svg" version="1.1" width="300px" height="32px" style="shape-rendering:geometricPrecision; text-rendering:geometricPrecision; image-rendering:optimizeQuality; fill-rule:evenodd; clip-rule:evenodd" xmlns:xlink="http://www.w3.org/1999/xlink">
<g><path style="opacity:0.898" fill="#ffffff" d="M -0.5,-0.5 C 1.16667,-0.5 2.83333,-0.5 4.5,-0.5C 6.02763,0.309209 7.6943,0.975875 9.5,1.5C 9.22911,3.3797 9.89578,4.71304 11.5,5.5C 12.3257,8.48479 13.659,11.1515 15.5,13.5C 15.5,14.8333 16.1667,15.5 17.5,15.5C 17.81,16.7383 18.31,16.7383 19,15.5C 19.6839,17.359 20.6839,19.0257 22,20.5C 22.2784,19.5842 22.7784,18.9175 23.5,18.5C 23.5674,19.9587 23.2341,21.2921 22.5,22.5C 21.6618,22.8417 21.3284,23.5084 21.5,24.5C 20.6618,24.8417 20.3284,25.5084 20.5,26.5C 19.8333,26.8333 19.1667,27.1667 18.5,27.5C 16.8333,27.5 15.1667,27.5 13.5,27.5C 12.8333,26.8333 12.1667,26.1667 11.5,25.5C 11.6716,24.5084 11.3382,23.8417 10.5,23.5C 10.1667,22.1667 9.83333,20.8333 9.5,19.5C 9.44001,18.9569 9.10667,18.6236 8.5,18.5C 7.50909,22.4454 7.17575,26.4454 7.5,30.5C 6.83333,30.5 6.5,30.8333 6.5,31.5C 4.5,31.5 2.5,31.5 0.5,31.5C 0.5,30.8333 0.166667,30.5 -0.5,30.5C -0.5,20.1667 -0.5,9.83333 -0.5,-0.5 Z"/></g>
<g><path style="opacity:0.008" fill="#010000" d="M 9.5,0.5 C 10.8333,1.16667 10.8333,1.16667 9.5,0.5 Z"/></g>
<g><path style="opacity:0.855" fill="#F13024" d="M 27.5,-0.5 C 29.1667,-0.5 30.8333,-0.5 32.5,-0.5C 34.1509,10.3437 33.8176,21.0104 31.5,31.5C 30.8333,31.5 30.1667,31.5 29.5,31.5C 29.1667,30.1667 28.8333,30.1667 28.5,31.5C 27.5,31.5 26.5,31.5 25.5,31.5C 25.5,31.1667 25.5,30.8333 25.5,30.5C 25.8256,26.1161 25.4922,21.7828 24.5,17.5C 23.8933,17.6236 23.56,17.9569 23.5,18.5C 22.7784,18.9175 22.2784,19.5842 22,20.5C 20.6839,19.0257 19.6839,17.359 19,15.5C 18.31,16.7383 17.81,16.7383 17.5,15.5C 17.5,14.5 17.5,13.5 17.5,12.5C 20.1442,9.22661 22.3109,5.55994 24,1.5C 25.3024,0.915201 26.469,0.248534 27.5,-0.5 Z"/></g>
<g><path style="opacity:0.865" fill="#da2c20" d="M 36.5,-0.5 C 37.1667,-0.5 37.8333,-0.5 38.5,-0.5C 38.8333,0.833333 39.1667,0.833333 39.5,-0.5C 40.8333,-0.5 42.1667,-0.5 43.5,-0.5C 46.1846,2.18965 48.5179,5.18965 50.5,8.5C 50.8333,9.83333 51.1667,9.83333 51.5,8.5C 52.1667,8.5 52.5,8.16667 52.5,7.5C 54.3719,4.41809 56.7052,1.75143 59.5,-0.5C 61.5,-0.5 63.5,-0.5 65.5,-0.5C 67.4931,0.471574 67.8264,1.80491 66.5,3.5C 65.6618,3.84171 65.3284,4.50838 65.5,5.5C 64.8333,5.5 64.5,5.83333 64.5,6.5C 63.6618,6.84171 63.3284,7.50838 63.5,8.5C 62.6618,8.84171 62.3284,9.50838 62.5,10.5C 61.8333,10.5 61.5,10.8333 61.5,11.5C 60.6618,11.8417 60.3284,12.5084 60.5,13.5C 59.8333,13.5 59.5,13.8333 59.5,14.5C 58.6618,14.8417 58.3284,15.5084 58.5,16.5C 57.6618,16.8417 57.3284,17.5084 57.5,18.5C 56.8826,18.6107 56.3826,18.944 56,19.5C 55.7668,23.5845 55.2668,27.5845 54.5,31.5C 52.1667,31.5 49.8333,31.5 47.5,31.5C 46.7275,27.2504 46.2275,22.9171 46,18.5C 43.1428,14.1016 40.3095,9.76828 37.5,5.5C 37.5,4.83333 37.1667,4.5 36.5,4.5C 36.6716,3.50838 36.3382,2.84171 35.5,2.5C 35.5569,1.39105 35.8902,0.391047 36.5,-0.5 Z"/></g>
<g><path style="opacity:0.832" fill="#ffffff" d="M 71.5,-0.5 C 72.8333,-0.5 74.1667,-0.5 75.5,-0.5C 76.9525,0.848636 77.9525,2.5153 78.5,4.5C 77.596,5.20895 77.2627,6.20895 77.5,7.5C 78.1667,10.1667 78.8333,10.1667 79.5,7.5C 80.1667,7.5 80.5,7.16667 80.5,6.5C 81.1667,6.5 81.5,6.16667 81.5,5.5C 82.1667,5.5 82.5,5.16667 82.5,4.5C 83.5,4.16667 84.1667,3.5 84.5,2.5C 85.1098,1.60895 85.4431,0.608953 85.5,-0.5C 85.8333,-0.5 86.1667,-0.5 86.5,-0.5C 86.8333,0.833333 87.1667,0.833333 87.5,-0.5C 89.8333,-0.5 92.1667,-0.5 94.5,-0.5C 95.0906,0.151487 95.7573,0.818153 96.5,1.5C 95.8075,2.51776 95.1408,3.51776 94.5,4.5C 93.8333,4.5 93.5,4.83333 93.5,5.5C 92.8333,5.5 92.5,5.83333 92.5,6.5C 91.8333,6.5 91.5,6.83333 91.5,7.5C 90.8333,7.5 90.5,7.83333 90.5,8.5C 89.8333,8.5 89.5,8.83333 89.5,9.5C 88.8333,9.5 88.5,9.83333 88.5,10.5C 85.9328,13.095 86.2661,15.4283 89.5,17.5C 89.5,17.8333 89.5,18.1667 89.5,18.5C 89.5,19.1667 89.8333,19.5 90.5,19.5C 92.4821,22.8103 94.8154,25.8103 97.5,28.5C 96.9002,29.8999 95.9002,30.8999 94.5,31.5C 92.1667,31.5 89.8333,31.5 87.5,31.5C 87.1667,30.8333 86.8333,30.1667 86.5,29.5C 86.5,28.8333 86.1667,28.5 85.5,28.5C 84.8333,27.5 84.1667,26.5 83.5,25.5C 83.5,24.8333 83.1667,24.5 82.5,24.5C 82.5,23.8333 82.1667,23.5 81.5,23.5C 80.2579,21.1082 78.9245,21.2749 77.5,24C 78.0738,25.7621 78.4072,27.5954 78.5,29.5C 77.5,29.8333 76.8333,30.5 76.5,31.5C 74.5,31.5 72.5,31.5 70.5,31.5C 70.1667,30.5 69.5,29.8333 68.5,29.5C 68.8664,19.6864 68.8664,10.0197 68.5,0.5C 69.791,0.737305 70.791,0.403972 71.5,-0.5 Z"/></g>
<g><path style="opacity:0.004" fill="#000000" d="M 78.5,0.5 C 79.525,0.896566 79.6917,1.56323 79,2.5C 78.5357,1.90558 78.369,1.23891 78.5,0.5 Z"/></g>
<g><path style="opacity:0.868" fill="#db2c20" d="M 98.5,-0.5 C 99.1667,-0.5 99.8333,-0.5 100.5,-0.5C 100.833,0.833333 101.167,0.833333 101.5,-0.5C 102.167,-0.5 102.833,-0.5 103.5,-0.5C 103.833,0.833333 104.167,0.833333 104.5,-0.5C 104.833,-0.5 105.167,-0.5 105.5,-0.5C 107.531,0.538701 108.864,2.20537 109.5,4.5C 109.5,5.16667 109.833,5.5 110.5,5.5C 110.932,6.70951 111.599,7.70951 112.5,8.5C 112.833,9.83333 113.167,9.83333 113.5,8.5C 114.167,8.5 114.5,8.16667 114.5,7.5C 115.167,7.5 115.5,7.16667 115.5,6.5C 116.833,4.5 118.167,2.5 119.5,0.5C 120.492,0.67158 121.158,0.338246 121.5,-0.5C 123.5,-0.5 125.5,-0.5 127.5,-0.5C 127.5,0.166667 127.833,0.5 128.5,0.5C 128.443,1.60895 128.11,2.60895 127.5,3.5C 127.443,4.60895 127.11,5.60895 126.5,6.5C 125.662,6.84171 125.328,7.50838 125.5,8.5C 124.833,8.5 124.5,8.83333 124.5,9.5C 123.662,9.84171 123.328,10.5084 123.5,11.5C 122.833,11.5 122.5,11.8333 122.5,12.5C 121.662,12.8417 121.328,13.5084 121.5,14.5C 120.662,14.8417 120.328,15.5084 120.5,16.5C 119.833,16.5 119.5,16.8333 119.5,17.5C 118.662,17.8417 118.328,18.5084 118.5,19.5C 117.775,23.3953 117.109,27.3953 116.5,31.5C 114.167,31.5 111.833,31.5 109.5,31.5C 108.887,27.063 108.22,22.7297 107.5,18.5C 104.344,13.5282 101.177,8.52816 98,3.5C 97.4209,2.07153 97.5876,0.738195 98.5,-0.5 Z"/></g>
<g><path style="opacity:0.004" fill="#000000" d="M 118.5,-0.5 C 118.833,-0.5 119.167,-0.5 119.5,-0.5C 119.5,-0.166667 119.5,0.166667 119.5,0.5C 119.167,0.166667 118.833,-0.166667 118.5,-0.5 Z"/></g>
<g><path style="opacity:0.862" fill="#ffffff" d="M 132.5,-0.5 C 133.167,-0.5 133.833,-0.5 134.5,-0.5C 136.833,0.833333 139.167,0.833333 141.5,-0.5C 143.167,-0.5 144.833,-0.5 146.5,-0.5C 146.833,0.833333 147.167,0.833333 147.5,-0.5C 150.167,-0.5 152.833,-0.5 155.5,-0.5C 157.138,0.70458 157.471,2.03791 156.5,3.5C 156.5,4.16667 156.5,4.83333 156.5,5.5C 156.5,6.5 156.5,7.5 156.5,8.5C 156.167,8.5 155.833,8.5 155.5,8.5C 153.5,8.5 151.5,8.5 149.5,8.5C 149.167,8.5 148.833,8.5 148.5,8.5C 147.508,15.6476 147.175,22.9809 147.5,30.5C 146.209,30.2627 145.209,30.596 144.5,31.5C 144.167,31.5 143.833,31.5 143.5,31.5C 143.167,30.1667 142.833,30.1667 142.5,31.5C 141.5,31.5 140.5,31.5 139.5,31.5C 138.863,23.7338 138.196,16.0671 137.5,8.5C 137.167,8.5 136.833,8.5 136.5,8.5C 133.941,8.80155 131.607,8.46822 129.5,7.5C 129.5,5.16667 129.5,2.83333 129.5,0.5C 130.791,0.737305 131.791,0.403972 132.5,-0.5 Z"/></g>
<g><path style="opacity:0.012" fill="#010000" d="M 189.5,0.5 C 190.658,10.3247 190.825,20.3247 190,30.5C 189.5,20.5056 189.334,10.5056 189.5,0.5 Z"/></g>
<g><path style="opacity:0.01" fill="#010000" d="M 221.5,1.5 C 221.56,0.956913 221.893,0.62358 222.5,0.5C 223.833,10.5 223.833,20.5 222.5,30.5C 221.893,30.3764 221.56,30.0431 221.5,29.5C 222.532,26.0447 222.532,22.3781 221.5,18.5C 221.5,17.8333 221.5,17.1667 221.5,16.5C 222.833,15.5 222.833,14.5 221.5,13.5C 222.405,12.0357 222.405,10.7024 221.5,9.5C 222.833,6.83333 222.833,4.16667 221.5,1.5 Z"/></g>
<g><path style="opacity:0.017" fill="#070100" d="M 236.5,19.5 C 236.5,20.1667 236.5,20.8333 236.5,21.5C 235.681,24.3054 235.181,27.3054 235,30.5C 234.333,20.5 234.333,10.5 235,0.5C 235.172,7.0133 235.672,13.3466 236.5,19.5 Z"/></g>
<g><path style="opacity:0.004" fill="#000000" d="M 261.5,1.5 C 260.833,0.166667 260.833,0.166667 261.5,1.5 Z"/></g>
<g><path style="opacity:0.865" fill="#ffffff" d="M 263.5,-0.5 C 264.5,-0.5 265.5,-0.5 266.5,-0.5C 267.167,0.833333 267.833,0.833333 268.5,-0.5C 268.833,-0.5 269.167,-0.5 269.5,-0.5C 269.833,0.166667 270.167,0.833333 270.5,1.5C 270.179,7.02621 270.512,12.3595 271.5,17.5C 272.038,22.4671 271.371,27.1338 269.5,31.5C 268.833,31.5 268.167,31.5 267.5,31.5C 266.5,30.1667 265.5,30.1667 264.5,31.5C 264.167,31.5 263.833,31.5 263.5,31.5C 261.945,28.981 261.278,26.1476 261.5,23C 262.691,15.8344 262.691,8.66776 261.5,1.5C 262.5,1.16667 263.167,0.5 263.5,-0.5 Z"/></g>
<g><path style="opacity:0.298" fill="#51130c" d="M 277.5,0.5 C 277.5,0.166667 277.5,-0.166667 277.5,-0.5C 278.167,-0.5 278.833,-0.5 279.5,-0.5C 279.5,0.166667 279.833,0.5 280.5,0.5C 280.158,1.33825 279.492,1.67158 278.5,1.5C 278.5,0.833333 278.167,0.5 277.5,0.5 Z"/></g>
<g><path style="opacity:0.004" fill="#1c0602" d="M 295.5,2.5 C 294.833,2.5 294.5,2.16667 294.5,1.5C 296.346,0.257631 296.679,0.590965 295.5,2.5 Z"/></g>
<g><path style="opacity:0.008" fill="#1a0602" d="M 84.5,2.5 C 84.1667,3.5 83.5,4.16667 82.5,4.5C 81.8333,4.5 81.5,4.83333 81.5,5.5C 80.8333,5.5 80.5,5.83333 80.5,6.5C 79.8333,6.5 79.5,6.83333 79.5,7.5C 78.8333,10.1667 78.1667,10.1667 77.5,7.5C 78.404,6.79105 78.7373,5.79105 78.5,4.5C 80.371,4.14117 81.871,3.14117 83,1.5C 83.3826,2.05596 83.8826,2.38929 84.5,2.5 Z"/></g>
<g><path style="opacity:0.865" fill="#F13024" d="M 164.5,-0.5 C 164.833,-0.5 165.167,-0.5 165.5,-0.5C 167.218,0.223978 169.052,0.890644 171,1.5C 174.334,10.821 178.167,19.821 182.5,28.5C 182.218,29.7777 181.551,30.7777 180.5,31.5C 178.167,31.5 175.833,31.5 173.5,31.5C 173.068,30.2905 172.401,29.2905 171.5,28.5C 171.672,27.5084 171.338,26.8417 170.5,26.5C 170.167,26.5 169.833,26.5 169.5,26.5C 167.167,26.5 164.833,26.5 162.5,26.5C 162.167,26.5 161.833,26.5 161.5,26.5C 160.833,26.5 160.5,26.8333 160.5,27.5C 159.662,27.8417 159.328,28.5084 159.5,29.5C 158.5,29.8333 157.833,30.5 157.5,31.5C 154.833,31.5 152.167,31.5 149.5,31.5C 149.5,30.1667 149.5,28.8333 149.5,27.5C 150.338,27.1583 150.672,26.4916 150.5,25.5C 152.679,21.7975 154.345,17.7975 155.5,13.5C 156.404,12.791 156.737,11.791 156.5,10.5C 157.931,9.21959 158.598,7.55292 158.5,5.5C 159.558,4.39977 160.392,3.06644 161,1.5C 162.302,0.915201 163.469,0.248534 164.5,-0.5 Z"/></g>
<g><path style="opacity:0.855" fill="#ffffff" d="M 226.5,-0.5 C 227.167,-0.5 227.833,-0.5 228.5,-0.5C 229.167,0.833333 229.833,0.833333 230.5,-0.5C 230.833,-0.5 231.167,-0.5 231.5,-0.5C 233.818,9.98965 234.151,20.6563 232.5,31.5C 231.833,31.5 231.167,31.5 230.5,31.5C 230.167,30.1667 229.833,30.1667 229.5,31.5C 229.167,31.5 228.833,31.5 228.5,31.5C 227.833,30.1667 227.167,30.1667 226.5,31.5C 226.167,31.5 225.833,31.5 225.5,31.5C 224.715,22.9351 224.382,14.4351 224.5,6C 224.658,3.5505 225.325,1.38384 226.5,-0.5 Z"/></g>
<g><path style="opacity:0.004" fill="#010000" d="M 247.5,1.5 C 248.643,4.97579 248.81,8.64246 248,12.5C 247.501,8.84841 247.335,5.18174 247.5,1.5 Z"/></g>
<g><path style="opacity:0.008" fill="#030000" d="M 274.5,3.5 C 274.5,3.83333 274.5,4.16667 274.5,4.5C 273.662,4.84171 273.328,5.50838 273.5,6.5C 272.387,5.05361 272.22,3.38695 273,1.5C 273.278,2.4158 273.778,3.08247 274.5,3.5 Z"/></g>
<g><path style="opacity:0.031" fill="#080100" d="M 277.5,0.5 C 277.5,0.833333 277.5,1.16667 277.5,1.5C 277.5,2.16667 277.167,2.5 276.5,2.5C 275.833,2.5 275.5,2.83333 275.5,3.5C 275.167,3.5 274.833,3.5 274.5,3.5C 274.81,1.85637 275.81,0.856369 277.5,0.5 Z"/></g>
<g><path style="opacity:0.885" fill="#F13024" d="M 281.5,-0.5 C 284.5,-0.5 287.5,-0.5 290.5,-0.5C 291.671,0.344644 293.005,1.01131 294.5,1.5C 294.5,2.16667 294.833,2.5 295.5,2.5C 296.728,3.30646 297.728,4.30646 298.5,5.5C 298.328,6.49162 298.662,7.15829 299.5,7.5C 299.5,8.16667 299.5,8.83333 299.5,9.5C 297.374,10.0482 295.374,10.7148 293.5,11.5C 293.167,11.5 292.833,11.5 292.5,11.5C 292.328,12.4916 292.662,13.1583 293.5,13.5C 293.833,13.5 294.167,13.5 294.5,13.5C 294.5,14.1667 294.833,14.5 295.5,14.5C 295.5,15.1667 295.833,15.5 296.5,15.5C 296.5,16.1667 296.833,16.5 297.5,16.5C 297.5,17.1667 297.833,17.5 298.5,17.5C 298.328,18.4916 298.662,19.1583 299.5,19.5C 299.5,21.5 299.5,23.5 299.5,25.5C 298.833,25.5 298.5,25.8333 298.5,26.5C 297.833,26.5 297.5,26.8333 297.5,27.5C 296.5,27.8333 295.833,28.5 295.5,29.5C 294.833,29.5 294.5,29.8333 294.5,30.5C 293.209,30.2627 292.209,30.596 291.5,31.5C 288.167,31.5 284.833,31.5 281.5,31.5C 280.791,30.596 279.791,30.2627 278.5,30.5C 278.5,29.8333 278.167,29.5 277.5,29.5C 276.833,28.1667 275.833,27.1667 274.5,26.5C 274.5,25.8333 274.167,25.5 273.5,25.5C 273.5,24.1667 273.5,22.8333 273.5,21.5C 274.492,21.6716 275.158,21.3382 275.5,20.5C 276.167,20.5 276.833,20.5 277.5,20.5C 278.568,21.4345 279.901,21.7678 281.5,21.5C 281.833,21.5 282.167,21.5 282.5,21.5C 282.5,22.1667 282.833,22.5 283.5,22.5C 283.5,23.1667 283.833,23.5 284.5,23.5C 284.833,23.5 285.167,23.5 285.5,23.5C 286.5,24.8333 287.5,24.8333 288.5,23.5C 289.833,22.8333 289.833,22.1667 288.5,21.5C 288.5,20.8333 288.167,20.5 287.5,20.5C 286.833,20.5 286.167,20.5 285.5,20.5C 284.791,19.596 283.791,19.2627 282.5,19.5C 282.158,18.6618 281.492,18.3284 280.5,18.5C 280.158,17.6618 279.492,17.3284 278.5,17.5C 278.5,16.8333 278.167,16.5 277.5,16.5C 277.5,15.8333 277.167,15.5 276.5,15.5C 275.728,14.3065 274.728,13.3065 273.5,12.5C 273.5,10.5 273.5,8.5 273.5,6.5C 274.338,6.15829 274.672,5.49162 274.5,4.5C 275.167,4.5 275.5,4.16667 275.5,3.5C 276.167,3.5 276.5,3.16667 276.5,2.5C 277.167,2.5 277.5,2.16667 277.5,1.5C 277.833,1.5 278.167,1.5 278.5,1.5C 279.492,1.67158 280.158,1.33825 280.5,0.5C 281.167,0.5 281.5,0.166667 281.5,-0.5 Z M 289.5,9.5 C 290.71,9.93205 291.71,10.5987 292.5,11.5C 291.298,12.4054 289.964,12.4054 288.5,11.5C 288.833,10.8333 289.167,10.1667 289.5,9.5 Z"/></g>
<g><path style="opacity:0.012" fill="#000100" d="M 10.5,2.5 C 11.8333,3.16667 11.8333,3.16667 10.5,2.5 Z"/></g>
<g><path style="opacity:0.009" fill="#000000" d="M 35.5,2.5 C 35.3284,3.49162 35.6618,4.15829 36.5,4.5C 37.1667,4.5 37.5,4.83333 37.5,5.5C 37.6068,7.37857 37.1068,7.7119 36,6.5C 35.6667,14.5 35.3333,22.5 35,30.5C 34.1757,20.9908 34.3424,11.6575 35.5,2.5 Z"/></g>
<g><path style="opacity:0.896" fill="#d92c20" d="M 193.5,-0.5 C 195.167,-0.5 196.833,-0.5 198.5,-0.5C 200.023,3.37951 201.023,7.37951 201.5,11.5C 201.833,11.5 202.167,11.5 202.5,11.5C 204.833,11.5 207.167,11.5 209.5,11.5C 209.833,11.5 210.167,11.5 210.5,11.5C 210.977,7.37951 211.977,3.37951 213.5,-0.5C 215.167,-0.5 216.833,-0.5 218.5,-0.5C 219.29,0.40128 220.29,1.06795 221.5,1.5C 220.553,4.02277 220.553,6.68944 221.5,9.5C 220.167,10.8333 220.167,12.1667 221.5,13.5C 221.5,14.5 221.5,15.5 221.5,16.5C 220.167,17.1667 220.167,17.8333 221.5,18.5C 221.056,21.944 221.056,25.6106 221.5,29.5C 220.662,29.8417 220.328,30.5084 220.5,31.5C 218.167,31.5 215.833,31.5 213.5,31.5C 211.977,27.6205 210.977,23.6205 210.5,19.5C 209.167,19.5 207.833,19.5 206.5,19.5C 205.833,19.5 205.167,19.5 204.5,19.5C 202.901,19.2322 201.568,19.5655 200.5,20.5C 200.756,24.2693 200.423,27.9359 199.5,31.5C 197.833,31.5 196.167,31.5 194.5,31.5C 194.167,30.1667 193.833,30.1667 193.5,31.5C 193.167,31.5 192.833,31.5 192.5,31.5C 190.849,20.6563 191.182,9.98965 193.5,-0.5 Z"/></g>
<g><path style="opacity:0.012" fill="#030000" d="M 210.5,11.5 C 210.167,11.5 209.833,11.5 209.5,11.5C 207.167,10.1667 204.833,10.1667 202.5,11.5C 202.167,11.5 201.833,11.5 201.5,11.5C 201.335,7.81826 201.501,4.15159 202,0.5C 202.498,3.48162 202.665,6.48162 202.5,9.5C 204.833,9.5 207.167,9.5 209.5,9.5C 209.335,6.48162 209.502,3.48162 210,0.5C 210.499,4.15159 210.665,7.81826 210.5,11.5 Z"/></g>
<g><path style="opacity:0.883" fill="#ce2b1f" d="M 238.5,-0.5 C 240.833,-0.5 243.167,-0.5 245.5,-0.5C 246.436,6.68573 246.436,13.6857 245.5,20.5C 245.328,21.4916 245.662,22.1583 246.5,22.5C 246.833,22.5 247.167,22.5 247.5,22.5C 247.833,22.5 248.167,22.5 248.5,22.5C 252.167,22.5 255.833,22.5 259.5,22.5C 259.5,23.1667 259.833,23.5 260.5,23.5C 260.868,26.5331 260.202,29.1998 258.5,31.5C 254.833,31.5 251.167,31.5 247.5,31.5C 247.167,30.1667 246.833,30.1667 246.5,31.5C 245.833,31.5 245.167,31.5 244.5,31.5C 243.833,30.1667 243.167,30.1667 242.5,31.5C 241.167,31.5 239.833,31.5 238.5,31.5C 236.727,28.5118 236.06,25.1785 236.5,21.5C 237.833,20.8333 237.833,20.1667 236.5,19.5C 235.934,12.5491 236.601,5.88241 238.5,-0.5 Z"/></g>
<g><path style="opacity:0.005" fill="#010000" d="M 66.5,3.5 C 67.493,11.9839 67.8264,20.6506 67.5,29.5C 66.8333,21.8333 66.1667,14.1667 65.5,6.5C 65.5,6.16667 65.5,5.83333 65.5,5.5C 66.3382,5.15829 66.6716,4.49162 66.5,3.5 Z"/></g>
<g><path style="opacity:0.004" fill="#1b0900" d="M 110.5,5.5 C 109.833,5.5 109.5,5.16667 109.5,4.5C 111.409,3.32068 111.742,3.65401 110.5,5.5 Z"/></g>
<g><path style="opacity:0.116" fill="#3c0c09" d="M 128.5,0.5 C 128.833,0.5 129.167,0.5 129.5,0.5C 129.5,2.83333 129.5,5.16667 129.5,7.5C 129.167,7.5 128.833,7.5 128.5,7.5C 128.768,5.90097 128.434,4.56764 127.5,3.5C 128.11,2.60895 128.443,1.60895 128.5,0.5 Z"/></g>
<g><path style="opacity:0.004" fill="#030000" d="M 259.5,3.5 C 260.622,5.28841 260.789,7.28841 260,9.5C 259.505,7.5273 259.338,5.5273 259.5,3.5 Z"/></g>
<g><path style="opacity:0.006" fill="#010000" d="M 299.5,3.5 C 299.5,4.16667 299.5,4.83333 299.5,5.5C 299.167,5.5 298.833,5.5 298.5,5.5C 298.328,4.50838 298.662,3.84171 299.5,3.5 Z"/></g>
<g><path style="opacity:0.016" fill="#000000" d="M 11.5,4.5 C 12.8333,5.16667 12.8333,5.16667 11.5,4.5 Z"/></g>
<g><path style="opacity:0.016" fill="#040100" d="M 94.5,4.5 C 95.8333,5.16667 95.8333,5.16667 94.5,4.5 Z"/></g>
<g><path style="opacity:0.012" fill="#e62e22" d="M 156.5,3.5 C 157.5,3.83333 158.167,4.5 158.5,5.5C 157.833,5.5 157.167,5.5 156.5,5.5C 156.5,4.83333 156.5,4.16667 156.5,3.5 Z"/></g>
<g><path style="opacity:0.011" fill="#0a0100" d="M 115.5,6.5 C 115.5,7.16667 115.167,7.5 114.5,7.5C 113.833,7.5 113.5,7.83333 113.5,8.5C 113.167,8.5 112.833,8.5 112.5,8.5C 112.632,5.99309 113.632,5.32642 115.5,6.5 Z"/></g>
<g><path style="opacity:0.014" fill="#de2d21" d="M 52.5,7.5 C 51.8333,7.5 51.5,7.83333 51.5,8.5C 51.1667,8.5 50.8333,8.5 50.5,8.5C 50.7107,6.57591 51.3774,6.24258 52.5,7.5 Z"/></g>
<g><path style="opacity:0.008" fill="#010000" d="M 64.5,6.5 C 64.8333,6.5 65.1667,6.5 65.5,6.5C 65.6716,7.49162 65.3382,8.15829 64.5,8.5C 64.5,7.83333 64.5,7.16667 64.5,6.5 Z"/></g>
<g><path style="opacity:0.009" fill="#020000" d="M 126.5,6.5 C 127.167,6.83333 127.833,7.16667 128.5,7.5C 128.158,8.33825 127.492,8.67158 126.5,8.5C 126.5,7.83333 126.5,7.16667 126.5,6.5 Z"/></g>
<g><path style="opacity:0.007" fill="#0a0100" d="M 93.5,5.5 C 93.8333,5.5 94.1667,5.5 94.5,5.5C 93.1666,8.13543 91.3333,10.4688 89,12.5C 88.5357,11.9056 88.369,11.2389 88.5,10.5C 88.5,9.83333 88.8333,9.5 89.5,9.5C 90.1667,9.5 90.5,9.16667 90.5,8.5C 91.1667,8.5 91.5,8.16667 91.5,7.5C 91.5,6.83333 91.8333,6.5 92.5,6.5C 93.1667,6.5 93.5,6.16667 93.5,5.5 Z"/></g>
<g><path style="opacity:0.012" fill="#080100" d="M 284.5,7.5 C 284.833,7.5 285.167,7.5 285.5,7.5C 285.833,8.83333 286.167,8.83333 286.5,7.5C 286.833,7.5 287.167,7.5 287.5,7.5C 287.5,8.16667 287.833,8.5 288.5,8.5C 288.5,9.16667 288.833,9.5 289.5,9.5C 289.167,10.1667 288.833,10.8333 288.5,11.5C 287.391,11.4431 286.391,11.1098 285.5,10.5C 285.5,9.83333 285.167,9.5 284.5,9.5C 284.5,8.83333 284.5,8.16667 284.5,7.5 Z"/></g>
<g><path style="opacity:0.008" fill="#010000" d="M 63.5,8.5 C 63.8333,8.5 64.1667,8.5 64.5,8.5C 64.6716,9.49162 64.3382,10.1583 63.5,10.5C 63.5,9.83333 63.5,9.16667 63.5,8.5 Z"/></g>
<g><path style="opacity:0.008" fill="#000100" d="M 125.5,8.5 C 125.833,8.5 126.167,8.5 126.5,8.5C 126.315,9.17014 125.981,9.17014 125.5,8.5 Z"/></g>
<g><path style="opacity:0.008" fill="#010000" d="M 124.5,9.5 C 124.833,9.5 125.167,9.5 125.5,9.5C 125.672,10.4916 125.338,11.1583 124.5,11.5C 124.5,10.8333 124.5,10.1667 124.5,9.5 Z"/></g>
<g><path style="opacity:0.013" fill="#030000" d="M 136.5,8.5 C 136.833,8.5 137.167,8.5 137.5,8.5C 137.666,15.8409 137.5,23.1742 137,30.5C 136.5,23.8417 136.334,17.175 136.5,10.5C 134.143,10.6633 131.81,10.4966 129.5,10C 132.036,9.81382 134.369,9.31382 136.5,8.5 Z"/></g>
<g><path style="opacity:0.01" fill="#010000" d="M 17.5,12.5 C 16.8333,12.8333 16.1667,13.1667 15.5,13.5C 16.032,10.5404 16.6987,10.2071 17.5,12.5 Z"/></g>
<g><path style="opacity:0.008" fill="#040100" d="M 62.5,10.5 C 62.8333,10.5 63.1667,10.5 63.5,10.5C 63.3147,11.1701 62.9813,11.1701 62.5,10.5 Z"/></g>
<g><path style="opacity:0.012" fill="#030000" d="M 148.5,8.5 C 148.833,8.5 149.167,8.5 149.5,8.5C 151.5,9.83333 153.5,9.83333 155.5,8.5C 155.833,8.5 156.167,8.5 156.5,8.5C 156.5,9.16667 156.5,9.83333 156.5,10.5C 155.596,11.209 155.263,12.209 155.5,13.5C 154.596,12.791 154.263,11.791 154.5,10.5C 152.833,10.5 151.167,10.5 149.5,10.5C 149.337,15.547 149.671,20.547 150.5,25.5C 149.662,25.8417 149.328,26.5084 149.5,27.5C 148.51,21.3554 148.177,15.0221 148.5,8.5 Z"/></g>
<g><path style="opacity:0.006" fill="#000000" d="M 61.5,11.5 C 61.8333,11.5 62.1667,11.5 62.5,11.5C 62.6716,12.4916 62.3382,13.1583 61.5,13.5C 61.5,12.8333 61.5,12.1667 61.5,11.5 Z"/></g>
<g><path style="opacity:0.012" fill="#000000" d="M 123.5,11.5 C 123.833,11.5 124.167,11.5 124.5,11.5C 124.315,12.1701 123.981,12.1701 123.5,11.5 Z"/></g>
<g><path style="opacity:0.008" fill="#010000" d="M 260.5,11.5 C 261.525,11.8966 261.692,12.5632 261,13.5C 260.536,12.9056 260.369,12.2389 260.5,11.5 Z"/></g>
<g><path style="opacity:0.149" fill="#F13024" d="M 270.5,1.5 C 272.157,6.75482 272.49,12.0882 271.5,17.5C 270.512,12.3595 270.179,7.02621 270.5,1.5 Z"/></g>
<g><path style="opacity:0.008" fill="#0d0201" d="M 293.5,11.5 C 295.199,11.3398 296.866,11.5065 298.5,12C 297.833,12.3333 297.167,12.6667 296.5,13C 297.337,14.0113 297.67,15.1779 297.5,16.5C 296.833,16.5 296.5,16.1667 296.5,15.5C 295.833,15.5 295.5,15.1667 295.5,14.5C 294.833,14.5 294.5,14.1667 294.5,13.5C 294.167,13.5 293.833,13.5 293.5,13.5C 293.5,12.8333 293.5,12.1667 293.5,11.5 Z"/></g>
<g><path style="opacity:0.01" fill="#010000" d="M 122.5,12.5 C 122.833,12.5 123.167,12.5 123.5,12.5C 123.672,13.4916 123.338,14.1583 122.5,14.5C 122.5,13.8333 122.5,13.1667 122.5,12.5 Z"/></g>
<g><path style="opacity:0.008" fill="#0a0100" d="M 273.5,12.5 C 273.557,13.609 273.89,14.609 274.5,15.5C 273.596,16.209 273.263,17.209 273.5,18.5C 275.993,18.8693 276.66,18.2027 275.5,16.5C 276.167,16.5 276.5,16.1667 276.5,15.5C 277.167,15.5 277.5,15.8333 277.5,16.5C 278.167,16.5 278.5,16.8333 278.5,17.5C 278.842,18.3382 279.508,18.6716 280.5,18.5C 280.5,18.8333 280.5,19.1667 280.5,19.5C 277.959,19.1486 276.292,19.4819 275.5,20.5C 275.158,21.3382 274.492,21.6716 273.5,21.5C 272.225,18.3962 272.225,15.3962 273.5,12.5 Z M 274.5,15.5 C 274.5,16.1667 274.833,16.5 275.5,16.5C 276.66,18.2027 275.993,18.8693 273.5,18.5C 273.263,17.209 273.596,16.209 274.5,15.5 Z"/></g>
<g><path style="opacity:0.012" fill="#010000" d="M 60.5,13.5 C 60.8333,13.5 61.1667,13.5 61.5,13.5C 61.3147,14.1701 60.9813,14.1701 60.5,13.5 Z"/></g>
<g><path style="opacity:0.004" fill="#010000" d="M 59.5,14.5 C 59.8333,14.5 60.1667,14.5 60.5,14.5C 60.6716,15.4916 60.3382,16.1583 59.5,16.5C 59.5,15.8333 59.5,15.1667 59.5,14.5 Z"/></g>
<g><path style="opacity:0.012" fill="#000000" d="M 121.5,14.5 C 121.833,14.5 122.167,14.5 122.5,14.5C 122.315,15.1701 121.981,15.1701 121.5,14.5 Z"/></g>
<g><path style="opacity:0.004" fill="#000000" d="M 299.5,15.5 C 299.5,16.1667 299.5,16.8333 299.5,17.5C 299.167,17.5 298.833,17.5 298.5,17.5C 298.328,16.5084 298.662,15.8417 299.5,15.5 Z"/></g>
<g><path style="opacity:0.008" fill="#de2d21" d="M 58.5,16.5 C 58.8333,16.5 59.1667,16.5 59.5,16.5C 59.3147,17.1701 58.9813,17.1701 58.5,16.5 Z"/></g>
<g><path style="opacity:0.01" fill="#010000" d="M 90.5,19.5 C 89.8333,19.5 89.5,19.1667 89.5,18.5C 89.5,18.1667 89.5,17.8333 89.5,17.5C 89.81,16.2617 90.31,16.2617 91,17.5C 91.6917,18.4368 91.525,19.1034 90.5,19.5 Z"/></g>
<g><path style="opacity:0.008" fill="#030100" d="M 120.5,16.5 C 121.833,17.1667 121.833,17.1667 120.5,16.5 Z"/></g>
<g><path style="opacity:0.008" fill="#110301" d="M 165.5,14.5 C 166.492,14.3284 167.158,14.6618 167.5,15.5C 166.596,16.209 166.263,17.209 166.5,18.5C 165.833,18.5 165.167,18.5 164.5,18.5C 164.5,17.8333 164.167,17.5 163.5,17.5C 164.551,16.7777 165.218,15.7777 165.5,14.5 Z"/></g>
<g><path style="opacity:0.011" fill="#0b0101" d="M 260.5,23.5 C 259.833,23.5 259.5,23.1667 259.5,22.5C 255.833,21.1667 252.167,21.1667 248.5,22.5C 248.167,22.5 247.833,22.5 247.5,22.5C 247.167,21.1667 246.833,21.1667 246.5,22.5C 245.662,22.1583 245.328,21.4916 245.5,20.5C 246.29,19.3915 246.79,18.0581 247,16.5C 248.617,17.5358 248.784,18.7025 247.5,20C 251.755,20.7961 255.921,20.6295 260,19.5C 260.49,20.7932 260.657,22.1266 260.5,23.5 Z"/></g>
<g><path style="opacity:0.004" fill="#020000" d="M 259.5,16.5 C 260.525,16.8966 260.692,17.5632 260,18.5C 259.536,17.9056 259.369,17.2389 259.5,16.5 Z"/></g>
<g><path style="opacity:0.008" fill="#010000" d="M 119.5,17.5 C 119.833,17.5 120.167,17.5 120.5,17.5C 120.672,18.4916 120.338,19.1583 119.5,19.5C 119.5,18.8333 119.5,18.1667 119.5,17.5 Z"/></g>
<g><path style="opacity:0.008" fill="#010100" d="M 57.5,18.5 C 58.8333,19.1667 58.8333,19.1667 57.5,18.5 Z"/></g>
<g><path style="opacity:0.01" fill="#030000" d="M 107.5,18.5 C 107.666,22.5138 107.499,26.5138 107,30.5C 106.188,26.3112 106.355,22.3112 107.5,18.5 Z"/></g>
<g><path style="opacity:0.273" fill="#F13024" d="M 167.5,16.5 C 168.404,17.209 168.737,18.209 168.5,19.5C 166.585,19.7845 164.919,19.4511 163.5,18.5C 163.833,18.5 164.167,18.5 164.5,18.5C 165.167,18.5 165.833,18.5 166.5,18.5C 167.338,18.1583 167.672,17.4916 167.5,16.5 Z"/></g>
<g><path style="opacity:0.01" fill="#020000" d="M 118.5,19.5 C 118.833,19.5 119.167,19.5 119.5,19.5C 119.167,34.1667 118.833,34.1667 118.5,19.5 Z"/></g>
<g><path style="opacity:0.004" fill="#000000" d="M 56.5,20.5 C 57.525,20.8966 57.6917,21.5632 57,22.5C 56.5357,21.9056 56.369,21.2389 56.5,20.5 Z"/></g>
<g><path style="opacity:0.18" fill="#250805" d="M 280.5,19.5 C 281.167,19.5 281.833,19.5 282.5,19.5C 282.5,19.8333 282.5,20.1667 282.5,20.5C 281.833,20.5 281.5,20.8333 281.5,21.5C 279.901,21.7678 278.568,21.4345 277.5,20.5C 278.791,20.7373 279.791,20.404 280.5,19.5 Z"/></g>
<g><path style="opacity:0.021" fill="#220c04" d="M 282.5,21.5 C 282.5,21.1667 282.5,20.8333 282.5,20.5C 283.5,20.5 284.5,20.5 285.5,20.5C 286.167,21.8333 286.833,21.8333 287.5,20.5C 288.167,20.5 288.5,20.8333 288.5,21.5C 288.5,22.1667 288.5,22.8333 288.5,23.5C 287.5,24.8333 286.5,24.8333 285.5,23.5C 285.167,23.5 284.833,23.5 284.5,23.5C 283.833,23.5 283.5,23.1667 283.5,22.5C 282.833,22.5 282.5,22.1667 282.5,21.5 Z"/></g>
<g><path style="opacity:0.015" fill="#130402" d="M 200.5,20.5 C 201.568,19.5655 202.901,19.2322 204.5,19.5C 202.836,22.8663 202.003,26.533 202,30.5C 201.821,26.9748 201.321,23.6414 200.5,20.5 Z"/></g>
<g><path style="opacity:0.009" fill="#110301" d="M 206.5,19.5 C 207.833,19.5 209.167,19.5 210.5,19.5C 210.665,23.1817 210.499,26.8484 210,30.5C 209.999,27.313 209.166,24.4797 207.5,22C 208.167,21.6667 208.833,21.3333 209.5,21C 208.263,20.7679 207.263,20.2679 206.5,19.5 Z"/></g>
<g><path style="opacity:0.373" fill="#F13024" d="M 23.5,18.5 C 23.56,17.9569 23.8933,17.6236 24.5,17.5C 25.4922,21.7828 25.8256,26.1161 25.5,30.5C 24.8333,26.5 24.1667,22.5 23.5,18.5 Z"/></g>
<g><path style="opacity:0.007" fill="#130401" d="M 81.5,23.5 C 82.1667,23.5 82.5,23.8333 82.5,24.5C 83.1667,24.5 83.5,24.8333 83.5,25.5C 82.1329,26.8526 81.1329,26.5193 80.5,24.5C 80.6236,23.8933 80.9569,23.56 81.5,23.5 Z"/></g>
<g><path style="opacity:0.01" fill="#040000" d="M 22.5,22.5 C 23.6341,24.9664 23.8007,27.633 23,30.5C 22.79,28.9419 22.29,27.6085 21.5,26.5C 21.5,25.8333 21.5,25.1667 21.5,24.5C 22.3382,24.1583 22.6716,23.4916 22.5,22.5 Z"/></g>
<g><path style="opacity:0.007" fill="#030100" d="M 10.5,23.5 C 10.3284,24.4916 10.6618,25.1583 11.5,25.5C 11.2914,26.9217 10.7914,28.255 10,29.5C 9.21086,27.2884 9.37753,25.2884 10.5,23.5 Z"/></g>
<g><path style="opacity:0.009" fill="#010000" d="M 183.5,28.5 C 183.167,28.5 182.833,28.5 182.5,28.5C 182.833,24.5 183.167,24.5 183.5,28.5 Z"/></g>
<g><path style="opacity:0.167" fill="#F13024" d="M 9.5,19.5 C 8.83333,23.1667 8.16667,26.8333 7.5,30.5C 7.17575,26.4454 7.50909,22.4454 8.5,18.5C 9.10667,18.6236 9.44001,18.9569 9.5,19.5 Z"/></g>
<g><path style="opacity:0.004" fill="#000000" d="M 20.5,26.5 C 20.8333,26.5 21.1667,26.5 21.5,26.5C 21.3147,27.1701 20.9813,27.1701 20.5,26.5 Z"/></g>
<g><path style="opacity:0.005" fill="#000000" d="M 56.5,26.5 C 57.5983,27.6009 57.765,28.9343 57,30.5C 56.51,29.2068 56.3433,27.8734 56.5,26.5 Z"/></g>
<g><path style="opacity:0.015" fill="#030000" d="M 161.5,26.5 C 161.833,26.5 162.167,26.5 162.5,26.5C 164.833,27.8333 167.167,27.8333 169.5,26.5C 169.833,26.5 170.167,26.5 170.5,26.5C 170.5,27.1667 170.5,27.8333 170.5,28.5C 167.061,28.2529 163.728,28.5863 160.5,29.5C 160.5,28.8333 160.5,28.1667 160.5,27.5C 161.167,27.5 161.5,27.1667 161.5,26.5 Z"/></g>
<g><path style="opacity:0.004" fill="#000000" d="M 298.5,26.5 C 298.833,26.5 299.167,26.5 299.5,26.5C 299.5,27.1667 299.5,27.8333 299.5,28.5C 299.167,28.5 298.833,28.5 298.5,28.5C 298.5,27.8333 298.5,27.1667 298.5,26.5 Z"/></g>
<g><path style="opacity:0.081" fill="#1d0504" d="M 13.5,27.5 C 15.1667,27.5 16.8333,27.5 18.5,27.5C 18.5,27.8333 18.5,28.1667 18.5,28.5C 16.7376,28.3573 15.0709,28.6906 13.5,29.5C 12.537,29.0302 12.537,28.3635 13.5,27.5 Z"/></g>
<g><path style="opacity:0.008" fill="#010000" d="M 98.5,28.5 C 97.8333,27.1667 97.8333,27.1667 98.5,28.5 Z"/></g>
<g><path style="opacity:0.007" fill="#130401" d="M 273.5,25.5 C 273.461,27.2239 273.794,27.5573 274.5,26.5C 275.833,27.1667 276.833,28.1667 277.5,29.5C 277.5,29.8333 277.5,30.1667 277.5,30.5C 276.279,29.9717 275.113,29.305 274,28.5C 273.667,28.8333 273.333,29.1667 273,29.5C 272.235,27.9343 272.402,26.6009 273.5,25.5 Z"/></g>
<g><path style="opacity:0.012" fill="#030100" d="M 18.5,28.5 C 19.2389,28.369 19.9056,28.5357 20.5,29C 19.5632,29.6917 18.8966,29.525 18.5,28.5 Z"/></g>
<g><path style="opacity:0.008" fill="#140301" d="M 85.5,28.5 C 86.1667,28.5 86.5,28.8333 86.5,29.5C 84.591,30.6793 84.2576,30.346 85.5,28.5 Z"/></g>
<g><path style="opacity:0.004" fill="#030100" d="M 98.5,28.5 C 99.525,28.8966 99.6917,29.5632 99,30.5C 98.5357,29.9056 98.369,29.2389 98.5,28.5 Z"/></g>
<g><path style="opacity:0.012" fill="#010000" d="M 170.5,28.5 C 170.833,28.5 171.167,28.5 171.5,28.5C 171.167,31.1667 170.833,31.1667 170.5,28.5 Z"/></g>
<g><path style="opacity:0.006" fill="#020000" d="M 183.5,28.5 C 184.525,28.8966 184.692,29.5632 184,30.5C 183.536,29.9056 183.369,29.2389 183.5,28.5 Z"/></g>
<g><path style="opacity:0.006" fill="#1c0803" d="M 297.5,27.5 C 297.5,28.1667 297.833,28.5 298.5,28.5C 297.71,29.4013 296.71,30.0679 295.5,30.5C 295.5,30.1667 295.5,29.8333 295.5,29.5C 295.833,28.5 296.5,27.8333 297.5,27.5 Z"/></g>
<g><path style="opacity:0.004" fill="#000000" d="M 67.5,29.5 C 67.8333,29.5 68.1667,29.5 68.5,29.5C 68.3147,30.1701 67.9813,30.1701 67.5,29.5 Z"/></g>
<g><path style="opacity:0.008" fill="#000000" d="M 78.5,29.5 C 79.8333,30.1667 79.8333,30.1667 78.5,29.5 Z"/></g>
<g><path style="opacity:0.004" fill="#000000" d="M 159.5,29.5 C 159.833,29.5 160.167,29.5 160.5,29.5C 160.315,30.1701 159.981,30.1701 159.5,29.5 Z"/></g>
<g><path style="opacity:0.008" fill="#030100" d="M 277.5,30.5 C 277.833,30.5 278.167,30.5 278.5,30.5C 278.5,30.8333 278.5,31.1667 278.5,31.5C 278.167,31.1667 277.833,30.8333 277.5,30.5 Z"/></g>
<g><path style="opacity:0.004" fill="#010100" d="M 294.5,30.5 C 294.833,30.5 295.167,30.5 295.5,30.5C 295.5,30.8333 295.5,31.1667 295.5,31.5C 295.167,31.1667 294.833,30.8333 294.5,30.5 Z"/></g>
</svg>
